<?xml version="1.0" ?><svg style="enable-background:new 0 0 48 48;" version="1.1" viewBox="0 0 48 48" xml:space="preserve" xmlns="http://www.w3.org/2000/svg" xmlns:xlink="http://www.w3.org/1999/xlink"><g id="Icons"><g><g><path d="M22.22915,39.88005L22.22915,39.88005c-0.4823,0-0.8732-0.3926-0.8732-0.8768v-3.2917     c0-0.4843,0.3909-0.8769,0.8732-0.8769l0,0c0.4822,0,0.8732,0.3926,0.8732,0.8769v3.2917     C23.10235,39.48745,22.71135,39.88005,22.22915,39.88005z" style="fill:#FFFFFF;"/><path d="M25.77055,39.88005L25.77055,39.88005c-0.4821,0-0.8732-0.3926-0.8732-0.8768v-3.2917     c0-0.4843,0.3911-0.8769,0.8732-0.8769l0,0c0.4823,0,0.8733,0.3926,0.8733,0.8769v3.2917     C26.64385,39.48745,26.25285,39.88005,25.77055,39.88005z" style="fill:#FFFFFF;"/><path d="M23.97555,40.67145L23.97555,40.67145c-0.4823,0-0.8732-0.3925-0.8732-0.8768v-4.8745     c0-0.4843,0.3909-0.8769,0.8732-0.8769l0,0c0.4822,0,0.8732,0.3926,0.8732,0.8769v4.8745     C24.84875,40.27895,24.45775,40.67145,23.97555,40.67145z" style="fill:#FFFFFF;"/></g><polygon points="36.51205,14.88135 11.36125,14.88135 11.42205,16.90445 36.51205,16.90445   " style="fill:#464747;"/><path d="M11.40695,14.88135c0,0-0.8153-6.3577,4.59-7.4689c0.3245-0.0667,0.6586-0.0839,0.9898-0.0839    h13.4184c0.9853,0,1.9655,0.2309,2.815,0.7322c1.4895,0.8791,3.2919,2.7779,3.2919,6.8206H11.40695z" style="fill:#F4F4F4;"/><path d="M40.02985,28.49755c-0.19,3.05-3.52,5.6-3.52,5.6c0,0.03-0.01,0.06-0.01,0.09    c-0.06,0.37-0.12,0.72-0.19,1.04c-1.75,7.89-8.74,3.8-8.74,3.8h-7.48c-7.07,2.46-8.4-2.06-8.66-4.14    c-0.06-0.48-0.07-0.83-0.07-0.96c0-0.03,0-0.05,0-0.05c-0.05,0-2.21-2.44-2.21-2.44c-1.18-1.19-1.18-2.87-1.18-2.87    c0-1.91,1.09-2.74,1.68-3.05c0.22-0.11,0.37-0.15,0.37-0.15v-7.2h1.4v-1.26h25.09v1.56l1.09,0.04v6.9c0.02,0,0.04,0.01,0.06,0.01    C40.10985,25.76755,40.02985,28.49755,40.02985,28.49755z" style="fill:#F4F4F4;"/><path d="M15.72115,28.94785c0,0,2.7894-0.2887,3.8781-1.4805c1.1232-1.2295,5.4489-3.1542,8.686,0    c0,0,1.6026,1.9633,4.0706,1.8346c0,0-2.0573,1.5045-4.2949,0.006c0,0-3.8141-2.9027-7.7245-0.2314    C20.33645,29.07655,18.37815,30.54715,15.72115,28.94785z" style="fill:#464747;"/><ellipse cx="16.45972" cy="36.09597" rx="1.63785" ry="1.64465" style="fill:#464747;"/><ellipse cx="31.53283" cy="36.09597" rx="1.63785" ry="1.64465" style="fill:#464747;"/><path d="M22.44245,19.37115h-8.9571c0,0,0.2609,7.1171,4.4785,3.7331L22.44245,19.37115z" style="fill:#464747;"/><path d="M25.11075,19.37115h8.9571c0,0-0.2608,7.1171-4.4785,3.7331L25.11075,19.37115z" style="fill:#464747;"/><g><g><path d="M19.20985,27.50765v2.3912c-0.22,0.0815-0.47,0.1494-0.75,0.1494v-1.97      C18.72985,27.91525,18.98985,27.72505,19.20985,27.50765z" style="fill:#F4F4F4;"/></g><g><path d="M29.47985,28.43155v1.9157c-0.24-0.0544-0.49-0.1495-0.75-0.3126v-2.3775      C28.91985,27.88815,29.16985,28.15975,29.47985,28.43155z" style="fill:#F4F4F4;"/></g><g><path d="M22.52985,24.98065v3.5152c-0.25,0.068-0.5,0.1766-0.75,0.2989v-3.5152      C22.01985,25.15725,22.26985,25.06215,22.52985,24.98065z" style="fill:#F4F4F4;"/></g><g><path d="M26.05985,25.15725v3.7634c-0.23-0.1087-0.48-0.2173-0.75-0.2853v-3.7634      C25.55985,24.93985,25.80985,25.02135,26.05985,25.15725z" style="fill:#F4F4F4;"/></g></g><g><path d="M21.78005,39.88005L21.78005,39.88005c-0.4823,0-0.8732-0.3926-0.8732-0.8768v-3.2917     c0-0.4843,0.3909-0.8769,0.8732-0.8769l0,0c0.4822,0,0.8732,0.3926,0.8732,0.8769v3.2917     C22.65325,39.48745,22.26225,39.88005,21.78005,39.88005z" style="fill:#CCCCCC;"/><path d="M25.90155,39.88005L25.90155,39.88005c-0.4821,0-0.8732-0.3926-0.8732-0.8768v-3.2917     c0-0.4843,0.3911-0.8769,0.8732-0.8769l0,0c0.4823,0,0.8733,0.3926,0.8733,0.8769v3.2917     C26.77485,39.48745,26.38385,39.88005,25.90155,39.88005z" style="fill:#CCCCCC;"/><path d="M23.84085,40.67145L23.84085,40.67145c-0.4823,0-0.8732-0.3925-0.8732-0.8768v-4.8745     c0-0.4843,0.3909-0.8769,0.8732-0.8769l0,0c0.4822,0,0.8732,0.3926,0.8732,0.8769v4.8745     C24.71405,40.27895,24.32305,40.67145,23.84085,40.67145z" style="fill:#CCCCCC;"/></g><g><path d="M10.01985,25.36755c0,0,1.4853-0.2427,2.5799,1.6569c0,0-0.1694-1.9962-2.5799-2.4792V25.36755z" style="fill:#CCCCCC;"/><path d="M11.35985,33.87755l1.417,1.3409l-1.3625-0.4639     C11.41435,34.75455,11.32735,34.17865,11.35985,33.87755z" style="fill:#CCCCCC;"/></g><g><path d="M37.60195,25.40975c0,0-1.4853-0.2427-2.58,1.6569c0,0,0.1694-1.9962,2.58-2.4792V25.40975z" style="fill:#CCCCCC;"/><path d="M36.50835,34.10405l-1.417,1.3409l1.2628-0.43     C36.35415,35.01495,36.54085,34.40515,36.50835,34.10405z" style="fill:#000000;"/></g></g></g></svg>